<?xml version="1.0" encoding="utf-8"?>
<!-- Generator: Adobe Illustrator 22.0.1, SVG Export Plug-In . SVG Version: 6.00 Build 0)  -->
<svg version="1.0" id="Layer_1" xmlns="http://www.w3.org/2000/svg" xmlns:xlink="http://www.w3.org/1999/xlink" x="0px" y="0px"
	 width="566.9px" height="90.3px" viewBox="0 0 566.9 90.3" style="enable-background:new 0 0 566.9 90.3;" xml:space="preserve">
<style type="text/css">
	.st0{fill:#FFFFFF;}
</style>
<g>
	<path class="st0" d="M298.4,30.7C298.4,30.7,298.4,30.6,298.4,30.7c0.1-0.1,0.3-0.1,0.4-0.1c0.2,0,0.4,0,0.5,0c0.2,0,0.4,0,0.5,0
		c0.1,0,0.4,0,0.6,0c0.4-1.2,0.7-2.4,1.1-3.6c0.4-1.2,0.7-2.4,1.1-3.6c0.4-1.2,0.7-2.4,1.1-3.5c0.4-1.2,0.7-2.3,1.1-3.5
		c0-0.2,0.1-0.3,0.2-0.4c0.1-0.1,0.2-0.2,0.3-0.3c0.1-0.1,0.2-0.2,0.4-0.2c0.1,0,0.3-0.1,0.4-0.1c0.1,0,0.3,0,0.4,0.1
		c0.1,0.1,0.3,0.1,0.4,0.2c0.1,0.1,0.2,0.2,0.3,0.4c0.1,0.1,0.1,0.3,0.2,0.4c0.3,1,0.6,2,0.9,2.9c0.3,1,0.6,1.9,0.9,2.9
		s0.6,1.9,0.9,2.8c0.3,0.9,0.6,1.9,0.9,2.8c-0.5,0-1,0.1-1.5,0.1s-1,0.1-1.5,0.1s-1,0.1-1.5,0.1s-1,0.1-1.5,0.1v0.5v0.5v0.5v0.5
		c0.7,0,1.5-0.1,2.2-0.1c0.7-0.1,1.5-0.1,2.2-0.2c0.7-0.1,1.5-0.1,2.2-0.2c0.7-0.1,1.5-0.1,2.2-0.2c-0.4-1.1-0.7-2.2-1.1-3.3
		c-0.4-1.1-0.7-2.2-1.1-3.4c-0.4-1.1-0.7-2.3-1.1-3.5c-0.4-1.2-0.7-2.3-1.1-3.5c-0.1-0.4-0.3-0.8-0.5-1.1s-0.5-0.6-0.8-0.9
		s-0.6-0.5-1-0.6c-0.4-0.1-0.8-0.2-1.2-0.3c-0.4,0-0.8,0-1.2,0.2c-0.4,0.1-0.7,0.3-1,0.5c-0.3,0.2-0.6,0.5-0.8,0.9
		c0,0.3-0.2,0.7-0.3,1.1c-0.4,1.2-0.7,2.4-1.1,3.7c-0.4,1.2-0.7,2.5-1.1,3.7c-0.4,1.2-0.7,2.5-1.1,3.7c-0.3,1.1-0.6,2.1-0.9,3.1
		c0-0.7,0-1.4,0-2c0-0.9,0-1.9,0-2.8c0-0.9,0-1.9,0-2.8s0-1.9,0-2.8c-0.5,0-1,0-1.6,0c-0.5,0-1,0-1.6,0c-0.5,0-1,0-1.6,0
		c-0.5,0-1,0-1.6,0v0.6v0.6v0.6c0,0.2,0,0.4,0,0.6c0.3,0,0.7,0,1,0s0.7,0,1,0s0.7,0,1,0s0.7,0,1,0c0,0.6,0,1.1,0,1.7
		c0,0.6,0,1.1,0,1.7s0,1.1,0,1.7c0,0.6,0,1.1,0,1.7c-0.5,0-0.9,0-1.4,0s-0.9,0-1.4,0s-0.9,0-1.4,0s-0.9,0-1.4,0
		c-0.3,0-0.5-0.1-0.7-0.2c-0.2-0.1-0.4-0.3-0.6-0.4c-0.2-0.2-0.3-0.4-0.4-0.7c-0.1-0.2-0.1-0.5-0.1-0.8c0-0.7,0-1.4,0-2.2
		c0-0.7,0-1.4,0-2.2c0-0.7,0-1.4,0-2.2c0-0.7,0-1.4,0-2.2c0-0.3,0-0.6,0.1-0.8c0.1-0.2,0.2-0.5,0.4-0.7s0.4-0.3,0.6-0.4
		c0.6-0.3,0.8-0.4,1.1-0.4c0.6,0,1.3,0,1.9,0c0.6,0,1.3,0,1.9,0c0.6,0,1.3,0,1.9,0c0.6,0,1.3,0,1.9,0c0-0.2,0-0.4,0-0.6
		c0-0.2,0-0.4,0-0.6s0-0.4,0-0.6c0-0.2,0-0.4,0-0.6c-0.7,0-1.3,0-2,0s-1.3,0-2,0s-1.3,0-2,0s-1.3,0-2,0c-0.5,0-1,0.1-1.5,0.3
		c-0.5,0.2-0.9,0.5-1.2,0.9c-0.4,0.4-0.6,0.9-0.8,1.4c-0.2,0.5-0.3,1.1-0.3,1.7v2.3V22c0,0,0,1.5,0,2.3v2.3c0,0.6,0.1,1.2,0.3,1.7
		c0.2,0.5,0.5,1,0.8,1.4c0.3,0.4,0.8,0.7,1.2,0.9c0.5,0.2,1,0.3,1.5,0.3c0.7,0,1.3,0,2,0s1.3,0,2,0s1.3,0,2-0.1
		C297.1,30.8,297.7,30.8,298.4,30.7z"/>
	<path class="st0" d="M282.3,16.1c-0.6,0-1.2,0-1.8,0c-0.6,0-1.2,0-1.8,0c-0.3,0-0.5,0.1-0.7,0.2c-0.2,0.1-0.4,0.3-0.6,0.4
		c-0.2,0.2-0.3,0.4-0.4,0.6c-0.1,0.2-0.1,0.5-0.1,0.8V19v0.8c0,0,0,0.5,0,0.8v0.8c0.6,0,1.2,0,1.8,0c0.6,0,1.2,0,1.8,0
		c0.6,0,1.2,0,1.8,0c0.7,0.1,1.3,0.1,1.9,0.1c0-0.2,0-0.4,0-0.6c0-0.2,0-0.4,0-0.6s0-0.4,0-0.6c0-0.2,0-0.4,0-0.6
		c-0.4,0-0.9,0-1.3,0c-0.4,0-0.9,0-1.3,0c-0.4,0-0.9,0-1.3,0c-0.4,0-0.9,0-1.3,0c0-0.1,0-0.2,0-0.2c0-0.1,0.1-0.1,0.1-0.2
		c0-0.1,0.1-0.1,0.2-0.1c0.1,0,0.1,0,0.2-0.1c0.5,0,1,0,1.6,0c0.5,0,1,0,1.6,0c0.5,0,1,0,1.6,0c0.5,0,1,0,1.6,0c0-0.2,0-0.4,0-0.6
		s0-0.4,0-0.6s0-0.4,0-0.6c0-0.2,0-0.4,0-0.6c-0.6,0-1.2,0-1.8,0C283.5,16.1,282.9,16.1,282.3,16.1z"/>
	<path class="st0" d="M304.9,26.5v0.6c0,0,0,0.4,0,0.6c0.4,0,0.9,0,1.3-0.1c0.4,0,0.9,0,1.3-0.1c0.4,0,0.9,0,1.3-0.1
		c0.4-0.1,0.9,0,1.3-0.1c-0.3-0.8-0.5-1.6-0.8-2.3c-0.3-0.8-0.5-1.6-0.8-2.4s-0.5-1.6-0.8-2.4c-0.3-0.8-0.5-1.6-0.8-2.4
		c0-0.1-0.1-0.3-0.2-0.6c-0.1-0.2-0.2-0.5-0.3-0.7c-0.1-0.2-0.2-0.4-0.3-0.6c-0.1-0.2-0.3-0.3-0.4-0.3c-0.1,0-0.3,0.1-0.4,0.2
		c-0.1,0.2-0.2,0.4-0.3,0.6c-0.1,0.2-0.2,0.5-0.3,0.7c0.3,0.2,0.2,0.4,0.2,0.5c-0.3,1-0.7,2.1-1,3.2s-0.7,2.1-1,3.2
		c-0.3,1.1-0.7,2.1-1,3.2c-0.3,1.1-0.7,2.2-1,3.3c0.2,0,0.4,0,0.6,0s0.4,0,0.6,0s0.4,0,0.6,0s0.4,0,0.6,0c0.1-0.4,0.3-0.9,0.4-1.3
		c0.1-0.4,0.3-0.9,0.4-1.3c0.1-0.4,0.3-0.9,0.4-1.3c0.1-0.4,0.3-0.9,0.4-1.3v0.6V26.5z M305.4,24.1c0.1-0.2,0.1-0.4,0.2-0.6
		c0.1-0.2,0.1-0.4,0.2-0.6c0.1-0.2,0.1-0.4,0.2-0.6c0.1,0.2,0.1,0.4,0.2,0.6c0.1,0.2,0.1,0.4,0.2,0.6c0.1,0.2,0.1,0.4,0.2,0.6
		c0.1,0.2,0.1,0.4,0.2,0.6c-0.1,0-0.3,0-0.4,0c-0.1,0-0.3,0-0.4,0c-0.1,0-0.3,0-0.4,0c-0.1,0-0.3,0-0.4,0
		C305.3,24.5,305.3,24.3,305.4,24.1z"/>
	<path class="st0" d="M282.7,25.3c-0.6,0-1.1,0-1.6,0c-0.6,0-1.1,0-1.6,0c-0.1,0-0.1-0.1-0.2-0.1c-0.1,0-0.2,0-0.2-0.1
		c0-0.1-0.1-0.1-0.1-0.2c0,0,0-0.1,0-0.2c0.4,0,0.9,0,1.3,0c0.4,0,0.9,0,1.3,0c0.4,0,0.9,0,1.3,0c0.4,0,0.9,0,1.3,0
		c0-0.2,0-0.4,0-0.6s0-0.6,0-0.6v-0.6v-0.6c-0.6,0-1.2,0-1.9,0c-0.6,0-1.2,0-1.8,0c-0.6,0-1.2,0-1.8,0c-0.6,0-1.2,0-1.8,0
		c0,0.3,0,0.5,0,0.8s0,0.5,0,0.8c0,0.3,0,0.5,0,0.8c0,0.3,0,0.5,0,0.8s0,0.6,0.1,0.8c0.1,0.3,0.2,0.5,0.4,0.7s0.4,0.4,0.6,0.5
		c0.2,0.1,0.4,0.2,0.7,0.2c0.6,0,1.2,0,1.8,0c0.6,0,1.2,0,1.8,0c0.6,0,1.2,0,1.8,0c0.6,0,1.2,0,1.8,0c0-0.2,0-0.4,0-0.6s0-0.4,0-0.6
		s0-0.6,0-0.6v-0.6c-0.6,0-1.1,0-1.6,0C283.7,25.3,283.2,25.3,282.7,25.3z"/>
	<path class="st0" d="M291.8,23.5c0-0.4,0-0.9,0-1.3c0-0.4,0-0.9,0-1.3c0-0.4,0-0.9,0-1.3c0-0.1,0-0.2,0-0.2c0-0.1,0.1-0.1,0.1-0.2
		c0-0.1,0.1-0.1,0.2-0.1c0.1,0,0.1,0,0.2,0c0.5,0,1,0,1.6,0c0.5,0,1,0,1.6,0c0.5,0,1,0,1.6,0c0.5,0,1,0,1.6,0c0-0.2,0-0.4,0-0.6
		s0-0.4,0-0.6c0-0.2,0-0.4,0-0.6s0-0.4,0-0.6c-0.6,0-1.2,0-1.8,0s-1.2,0-1.8,0s-1.2,0-1.8,0s-1.2,0-1.8,0c-0.3,0-0.5,0.1-0.7,0.2
		c-0.2,0.1-0.4,0.3-0.6,0.4c-0.2,0.2-0.3,0.4-0.4,0.7c-0.1,0.2-0.1,0.5-0.1,0.8V20v1.9c0,0.6,0,1.2,0,1.9c0,0.6,0,1.2,0,1.9
		c0,0.3,0.1,0.6,0.1,0.8c0.1,0.2,0.2,0.5,0.4,0.7c0.2,0.2,0.4,0.3,0.6,0.4c0.2,0.1,0.5,0.2,0.7,0.2c0.4,0,0.7,0,1.1,0
		c0.4,0,0.7,0,1.1,0c0.4,0,0.7,0,1.1,0c0.4,0,0.7,0,1.1,0c0-0.5,0-0.9,0-1.4s0-0.9,0-1.4s0-0.9,0-1.4s0-0.9,0-1.4
		c-0.3,0-0.6,0-0.9,0s-0.6,0-0.9,0s-0.6,0-0.9,0s-0.6-0.1-0.9-0.1v0.6v0.6c0,0,0,0.4,0,0.6c0,0.2,0,0.4,0,0.6c0.1,0,0.2,0,0.3,0
		s0.2,0,0.3,0c0.1,0,0.2,0,0.3,0s0.2,0,0.3,0c0,0.1,0,0.1,0,0.2c0,0.1,0,0.1,0,0.2c0,0.1,0,0.1,0,0.2v0.2c-0.1,0-0.2,0-0.3,0
		s-0.2,0-0.3,0s-0.2,0-0.3,0s-0.2,0-0.3,0s-0.1,0-0.2,0c-0.1,0-0.1-0.1-0.2-0.1c0-0.1-0.1-0.1-0.1-0.2c0-0.1,0-0.2,0-0.2
		C291.8,24.4,291.8,23.9,291.8,23.5z"/>
	<path class="st0" d="M261.9,23c0.5,0.5,1.1,0.9,1.7,1.2c0.6,0.3,1.3,0.5,2,0.5c0.1,0,0.3,0,0.4,0c0.1,0,0.3,0,0.4,0
		c0.1,0,0.3,0,0.4,0c0.1,0,0.3,0,0.4,0h0.1l0.1,0.1l0.1,0.1c0,0,0,0.1,0,0.2c0,0.1,0,0.1,0,0.1s0,0.1-0.1,0.1
		c-0.1,0-0.1,0.1-0.1,0.1h-0.1c-0.2,0-0.4,0-0.6,0s-0.4,0-0.6,0s-0.4,0-0.6,0c0.3-0.4,0.1-0.4-0.1-0.4c-0.4,0-0.8,0-1.2,0
		c-0.4,0-0.8,0-1.2,0c-0.4,0-0.8,0-1.2,0c-0.4,0-0.8,0-1.2-0.1v0.5c0,0,0,0.3,0,0.5c0,0.2,0,0.3,0,0.5c0,0.2,0,0.3,0,0.5
		c0.6,0,1.2,0.1,1.8,0.1c0.6,0,1.2,0.1,1.8,0.1s1.2,0.1,1.8,0.1s1.2,0.1,1.8,0.1c0.3,0,0.6-0.1,0.9-0.2c0.3-0.1,0.5-0.3,0.8-0.5
		c0.2-0.2,0.4-0.5,0.5-0.8c0.1-0.3,0.2-0.6,0.2-1s-0.1-0.7-0.2-1c-0.1-0.3-0.3-0.6-0.5-0.9c-0.2-0.2-0.5-0.4-0.8-0.6
		c-0.3-0.1-0.6-0.2-1-0.2c-0.2,0-0.5,0-0.7,0s-0.5,0-0.7,0s-0.5,0-0.7,0s-0.5,0-0.7,0c-0.3-0.1-0.6-0.3-0.8-0.5
		c-0.2-0.2-0.5-0.4-0.7-0.7c-0.2-0.3-0.3-0.5-0.5-0.8c-0.1-0.3-0.2-0.6-0.2-0.9c0-0.4,0.1-0.8,0.3-1.2c0.2-0.4,0.4-0.7,0.7-1
		c0.3-0.3,0.6-0.5,1-0.7c0.4-0.2,0.8-0.3,1.2-0.3c0.6,0,1.1,0,1.7-0.1c0.6,0,1.1,0,1.7,0c0.6,0,1.1,0,1.7,0c0.6,0,1.1,0,1.7,0
		c0-0.2,0-0.4,0-0.6s0-0.4,0-0.6c0-0.2,0-0.4,0-0.6s0-0.4,0-0.6c-0.6,0-1.2,0-1.8,0.1c-0.6,0-1.2,0-1.8,0.1c-0.6,0-1.2,0-1.8,0.1
		c-0.6,0-1.2,0.1-1.8,0.1c-0.7,0-1.4,0.2-2,0.5c-0.6,0.3-1.2,0.7-1.6,1.2c-0.5,0.5-0.8,1.1-1.1,1.7s-0.4,1.3-0.4,2s0.2,1.4,0.4,2
		C261,21.9,261.4,22.5,261.9,23z"/>
	<path class="st0" d="M271.8,20.7c-0.5-0.5-1.1-0.9-1.7-1.2c-0.6-0.3-1.3-0.4-2-0.4c-0.1,0-0.3,0-0.4,0c-0.1,0-0.3,0-0.4,0
		c-0.1,0-0.3,0-0.4,0c-0.1,0-0.3,0-0.4,0c-0.1,0-0.1,0-0.1,0s-0.1,0-0.1-0.1l-0.1-0.1v-0.1c0-0.1,0-0.1,0-0.1s0-0.1,0.1-0.1l0.1-0.1
		h0.1c0.2,0,0.4,0,0.6,0s0.4,0,0.6,0c0.1,0,0.3,0,0.5,0c0.1,0,0.1,0,0.2,0c0.4,0,0.8,0,1.2,0c0.4,0,0.8,0,1.2,0c0.4,0,0.8,0,1.2,0
		c0.4,0,0.8,0,1.2,0c0-0.2,0-0.4,0-0.5c0-0.2,0-0.4,0-0.5c0-0.1,0-0.4,0-0.5c0-0.2,0-0.4,0-0.5c-0.6,0-1.2,0-1.8,0
		c-0.6,0-1.2,0-1.8,0c-0.6,0-1.2,0-1.8,0c-0.6,0-1.2,0-1.8,0c-0.3,0-0.6,0.1-0.9,0.3c-0.3,0.1-0.5,0.3-0.8,0.6
		c-0.2,0.2-0.4,0.5-0.5,0.8c-0.1,0.3-0.2,0.6-0.2,1c0,0.4,0.1,0.7,0.2,1c0.1,0.3,0.3,0.6,0.5,0.8s0.5,0.4,0.8,0.6
		c0.3,0.1,0.6,0.2,1,0.2c0.2,0,0.5,0,0.7,0s0.5,0,0.7,0s0.5,0,0.7,0s0.5,0,0.7,0c0.3,0.1,0.6,0.3,0.8,0.5c0.2,0.2,0.5,0.4,0.7,0.7
		s0.3,0.6,0.5,0.9c0.1,0.3,0.2,0.7,0.2,1c0,0.5-0.1,0.9-0.3,1.3c-0.2,0.4-0.4,0.7-0.7,1c-0.3,0.3-0.6,0.5-1,0.6
		c-0.4,0.1-0.8,0.2-1.2,0.2c-0.6,0-1.1-0.1-1.7-0.1c-0.6,0-1.1-0.1-1.7-0.1c-0.6,0-1.1-0.1-1.7-0.1c-0.6,0-1.1-0.1-1.7-0.1v0.5
		c0,0,0,0.4,0,0.5V29c0,0,0,0.4,0,0.5c0.6,0.1,1.2,0.1,1.8,0.2c0.6,0.1,1.2,0.1,1.8,0.1c0.6,0,1.2,0.1,1.8,0.1
		c0.6,0,1.2,0.1,1.8,0.1c0.7,0,1.4-0.1,2-0.3c0.6-0.2,1.2-0.6,1.6-1.1c0.5-0.5,0.8-1.1,1.1-1.7c0.3-0.7,0.4-1.4,0.4-2.2
		c0-0.8-0.2-1.5-0.4-2.2C272.7,21.8,272.3,21.2,271.8,20.7z"/>
	<path class="st0" d="M281.9,28.3c-0.6,0-1.3,0-1.9,0c-0.6,0-1.3,0-1.9,0c-0.3,0-0.5-0.1-0.7-0.2c-0.2-0.1-0.4-0.3-0.6-0.4
		c-0.2-0.2-0.3-0.4-0.4-0.7c-0.1-0.2-0.1-0.5-0.1-0.8c0-0.7,0-1.4,0-2.1s0-1.4,0-2.1s0-1.4,0-2.1s0-1.4,0-2.1c0-0.3,0.1-0.5,0.1-0.8
		c0.1-0.2,0.2-0.5,0.4-0.6c0.2-0.2,0.4-0.3,0.6-0.4c0.2-0.4,0.5-0.4,0.7-0.4c0.6,0,1.3,0,1.9,0c0.6,0,1.3,0,1.9,0c0.6,0,1.3,0,1.9,0
		c0.6,0,1.3,0,1.9,0c0-0.2,0-0.4,0-0.6s0-0.4,0-0.6c0-0.2,0-0.4,0-0.6s0-0.4,0-0.6c-0.7,0-1.3,0-2,0s-1.3,0-2,0s-1.3,0-2,0
		s-1.3,0-2,0c-0.5,0-1,0.1-1.5,0.4c-0.5,0.2-0.9,0.5-1.2,0.9c-0.4,0.4-0.6,0.9-0.8,1.4c-0.2,0.5-0.3,1.1-0.3,1.6v2.2
		c0,0,0,1.5,0,2.2V24c0,0.7,0,1.5,0,2.2c0,0.6,0.1,1.1,0.3,1.6s0.5,1,0.8,1.4c0.3,0.4,0.8,0.7,1.2,1c0.5,0.2,1,0.4,1.5,0.4
		c0.7,0,1.3,0,2,0.1c0.7,0,1.3,0,2,0s1.3,0,2,0s1.3,0,2,0c0-0.2,0-0.4,0-0.6s0-0.4,0-0.6s0-0.4,0-0.6c0-0.2,0-0.4,0-0.6
		c-0.6,0-1.3,0-1.9,0C283.2,28.3,282.5,28.3,281.9,28.3z"/>
	<polygon class="st0" points="258.7,63.8 238.8,63.8 238.8,70.9 258.7,70.9 258.7,76.5 269.7,76.5 269.7,58.4 258.7,58.4 	"/>
	<path class="st0" d="M269.6,56.4c0-3.4-2.5-6.1-5.5-6.1c-0.1,0-0.1,0-0.2,0h-32.5c-3,0-5.4,2.7-5.4,6.1h5.4h5.5H264H269.6z"/>
	<path class="st0" d="M39.3,55.6c-3.9,0-7,3.1-7,7s3.1,7.1,7,7.1c3.9,0,7-3.2,7-7.1S43.1,55.6,39.3,55.6z"/>
	<rect x="225.9" y="58.4" class="st0" width="10.9" height="18.1"/>
	<rect x="88.4" y="58.4" class="st0" width="10.9" height="18.1"/>
	<rect x="112.5" y="58.4" class="st0" width="11" height="18.1"/>
	<rect x="64.3" y="58.4" class="st0" width="10.8" height="18.1"/>
	<path class="st0" d="M118.2,50.3H64.3v6.1h53.9h5.4C123.6,53.1,121.2,50.4,118.2,50.3z"/>
	<path class="st0" d="M174.4,56.4h5.4h5.5h35.2v-6.1h-40.7C176.8,50.3,174.4,53,174.4,56.4z"/>
	<rect x="129.7" y="50.3" class="st0" width="39" height="6.1"/>
	<path class="st0" d="M212.6,60.9h-0.1h-18.7v5.6h13.5c1.1,0,2,0.9,2,2c0,1.1-0.9,2-2,2h-20.1c-1.1,0-2-0.9-2-2v-10l-10.9-0.1v11.8
		c0.2,3.3,3.1,6,6.8,6.3h32c4.1-0.3,7.3-3.6,7.3-7.8C220.4,64.4,216.9,60.9,212.6,60.9z"/>
	<path class="st0" d="M140.6,68v-1.5h26.2v-5.6H143c-1.3,0-2.4-1.1-2.4-2.4h-1l-9.9-0.1V70c0.1,3.6,3.5,6.5,7.5,6.5h31.5v-6.1H143
		C141.7,70.4,140.6,69.3,140.6,68z"/>
	<rect x="399.2" y="50.3" class="st0" width="10.9" height="6.1"/>
	<polygon class="st0" points="426.1,49.7 414,49.7 418.4,56.4 430.5,56.4 	"/>
	<polygon class="st0" points="446.4,56.4 458.5,56.4 462.9,49.7 450.8,49.7 	"/>
	<polygon class="st0" points="438.3,68.3 431.7,58.4 419.7,58.4 431.7,76.5 432.9,76.5 443.8,76.5 445,76.5 457,58.4 444.9,58.4 	
		"/>
	<path class="st0" d="M528.2,55.6c-3.9,0-7.1,3.1-7.1,7s3.2,7.1,7.1,7.1c3.9,0,7-3.2,7-7.1S532.1,55.6,528.2,55.6z"/>
	<rect x="467.2" y="50.3" class="st0" width="39" height="6.1"/>
	<path class="st0" d="M478.1,68v-1.5h26.2v-5.6h-23.7c-1.3,0-2.4-1.1-2.4-2.4l-11-0.1V70c0.1,3.6,3.5,6.5,7.5,6.5h31.5v-6.1h-25.7
		C479.2,70.4,478.1,69.3,478.1,68z"/>
	<rect x="295.3" y="58.4" class="st0" width="10.9" height="18.1"/>
	<path class="st0" d="M335.5,50.3h-40.2v6.1h40.2h5.4C340.9,53.1,338.5,50.4,335.5,50.3z"/>
	<path class="st0" d="M329.9,68.4c0,1.1-0.9,2-2,2h-20.2v6.1H334c3.8-0.3,6.9-3.2,6.9-6.7V58.4h-11V68.4z"/>
	<rect x="399.2" y="58.4" class="st0" width="10.9" height="18.1"/>
	<rect x="348.1" y="58.4" class="st0" width="10.9" height="18.1"/>
	<path class="st0" d="M381.7,56.4h8.9h2.1c0-3.3-2.4-6-5.4-6.1h-34.2c-2.8,0.3-5,2.9-5,6.1h5h5.9h20.1H381.7z"/>
	<path class="st0" d="M392.7,61.7v-3.3H392h-10.3v3.4c0,0,0,0,0,0.1c0,1.1-0.9,1.9-2,1.9h-2.4h-15.9v7.1h15.3l5.5,5.6h13.1l-7.5-7.6
		C390.7,67.7,392.7,64.9,392.7,61.7z"/>
</g>
</svg>
